<mxfile host="Chrome" modified="2023-05-25T14:35:56.370Z" agent="Mozilla/5.0 (Macintosh; Intel Mac OS X 10_15_7) AppleWebKit/537.36 (KHTML, like Gecko) Chrome/101.0.0.0 Safari/537.36" version="21.2.7" etag="yMitgxawbIQZRZGSEFgd" type="device">
  <diagram id="fD20Im8lIcM0EdVMIQq6" name="第 1 页">
    <mxGraphModel dx="1434" dy="854" grid="1" gridSize="10" guides="1" tooltips="1" connect="1" arrows="1" fold="1" page="1" pageScale="1" pageWidth="827" pageHeight="1169" math="0" shadow="0">
      <root>
        <mxCell id="0" />
        <mxCell id="1" parent="0" />
        <mxCell id="rNg9Dq2vJt5PPlVK3cZ4-2" value="&lt;p style=&quot;margin:0px;margin-top:4px;text-align:center;&quot;&gt;&lt;i&gt;&amp;lt;&amp;lt;Interface&amp;gt;&amp;gt;&lt;/i&gt;&lt;br&gt;&lt;b&gt;Product&lt;/b&gt;&lt;/p&gt;&lt;br&gt;&lt;hr size=&quot;1&quot;&gt;&lt;p style=&quot;margin:0px;margin-left:4px;&quot;&gt;+ Func1()&lt;br&gt;+ Func2()&lt;/p&gt;" style="verticalAlign=top;align=left;overflow=fill;fontSize=12;fontFamily=Helvetica;html=1;whiteSpace=wrap;shadow=1;" vertex="1" parent="1">
          <mxGeometry x="610" y="275" width="190" height="100" as="geometry" />
        </mxCell>
        <mxCell id="rNg9Dq2vJt5PPlVK3cZ4-5" style="edgeStyle=orthogonalEdgeStyle;rounded=0;orthogonalLoop=1;jettySize=auto;html=1;exitX=0.5;exitY=0;exitDx=0;exitDy=0;entryX=0.5;entryY=1;entryDx=0;entryDy=0;dashed=1;endArrow=block;endFill=0;startSize=14;endSize=14;" edge="1" parent="1" source="rNg9Dq2vJt5PPlVK3cZ4-3" target="rNg9Dq2vJt5PPlVK3cZ4-2">
          <mxGeometry relative="1" as="geometry">
            <Array as="points">
              <mxPoint x="525" y="440" />
              <mxPoint x="705" y="440" />
            </Array>
          </mxGeometry>
        </mxCell>
        <mxCell id="rNg9Dq2vJt5PPlVK3cZ4-3" value="&lt;p style=&quot;margin:0px;margin-top:4px;text-align:center;&quot;&gt;&lt;b style=&quot;&quot;&gt;ConcreteProduct1&lt;/b&gt;&lt;/p&gt;&lt;br&gt;&lt;hr size=&quot;1&quot;&gt;&lt;p style=&quot;margin:0px;margin-left:4px;&quot;&gt;+ Func1()&lt;br&gt;+ Func2()&lt;/p&gt;" style="verticalAlign=top;align=left;overflow=fill;fontSize=12;fontFamily=Helvetica;html=1;whiteSpace=wrap;shadow=1;" vertex="1" parent="1">
          <mxGeometry x="430" y="485" width="190" height="100" as="geometry" />
        </mxCell>
        <mxCell id="rNg9Dq2vJt5PPlVK3cZ4-6" style="edgeStyle=orthogonalEdgeStyle;rounded=0;orthogonalLoop=1;jettySize=auto;html=1;exitX=0.5;exitY=0;exitDx=0;exitDy=0;dashed=1;endArrow=block;endFill=0;startSize=14;endSize=14;" edge="1" parent="1" source="rNg9Dq2vJt5PPlVK3cZ4-4">
          <mxGeometry relative="1" as="geometry">
            <mxPoint x="705" y="375" as="targetPoint" />
            <Array as="points">
              <mxPoint x="835" y="440" />
              <mxPoint x="705" y="440" />
            </Array>
          </mxGeometry>
        </mxCell>
        <mxCell id="rNg9Dq2vJt5PPlVK3cZ4-4" value="&lt;p style=&quot;margin:0px;margin-top:4px;text-align:center;&quot;&gt;&lt;b style=&quot;&quot;&gt;ConcreteProduct1&lt;/b&gt;&lt;/p&gt;&lt;br&gt;&lt;hr size=&quot;1&quot;&gt;&lt;p style=&quot;margin:0px;margin-left:4px;&quot;&gt;+ Func1()&lt;br&gt;+ Func2()&lt;/p&gt;" style="verticalAlign=top;align=left;overflow=fill;fontSize=12;fontFamily=Helvetica;html=1;whiteSpace=wrap;shadow=1;" vertex="1" parent="1">
          <mxGeometry x="740" y="480" width="190" height="100" as="geometry" />
        </mxCell>
        <mxCell id="rNg9Dq2vJt5PPlVK3cZ4-8" style="edgeStyle=orthogonalEdgeStyle;rounded=0;orthogonalLoop=1;jettySize=auto;html=1;exitX=1;exitY=0.5;exitDx=0;exitDy=0;entryX=0;entryY=0.5;entryDx=0;entryDy=0;endArrow=open;endFill=0;dashed=1;endSize=14;" edge="1" parent="1" source="rNg9Dq2vJt5PPlVK3cZ4-7" target="rNg9Dq2vJt5PPlVK3cZ4-2">
          <mxGeometry relative="1" as="geometry" />
        </mxCell>
        <mxCell id="rNg9Dq2vJt5PPlVK3cZ4-7" value="&lt;p style=&quot;margin:0px;margin-top:4px;text-align:center;&quot;&gt;&lt;b style=&quot;&quot;&gt;Factory&lt;/b&gt;&lt;/p&gt;&lt;br&gt;&lt;hr size=&quot;1&quot;&gt;&lt;p style=&quot;margin:0px;margin-left:4px;&quot;&gt;+createProduct()&lt;/p&gt;" style="verticalAlign=top;align=left;overflow=fill;fontSize=12;fontFamily=Helvetica;html=1;whiteSpace=wrap;shadow=1;" vertex="1" parent="1">
          <mxGeometry x="240" y="290" width="190" height="80" as="geometry" />
        </mxCell>
      </root>
    </mxGraphModel>
  </diagram>
</mxfile>
